<svg version="1.1" id="Layer_1" xmlns="http://www.w3.org/2000/svg" xmlns:xlink="http://www.w3.org/1999/xlink" x="0px" y="0px"
	 width="100%" viewBox="0 0 225 225" enable-background="new 0 0 225 225" xml:space="preserve">
<path fill="#FEFEFE" opacity="1.000000" stroke="none" 
	d="
M103.000000,226.000000 
	C68.666672,226.000000 34.833336,226.000000 1.000005,226.000000 
	C1.000003,151.000000 1.000003,76.000015 1.000002,1.000015 
	C75.999992,1.000010 150.999985,1.000010 225.999969,1.000005 
	C225.999985,75.999985 225.999985,150.999969 226.000000,225.999969 
	C185.166672,226.000000 144.333328,226.000000 103.000000,226.000000 
M198.875519,145.616394 
	C198.851913,146.066254 198.828323,146.516129 198.145248,147.001358 
	C197.878082,147.699081 197.610901,148.396805 197.451874,149.579147 
	C197.870590,149.829285 198.289307,150.079422 199.280106,150.805679 
	C200.656754,150.559326 202.033386,150.312958 204.101120,149.936783 
	C204.612045,148.541428 205.122955,147.146072 205.725906,145.176407 
	C205.357513,144.574921 204.989120,143.973434 204.620728,143.371964 
	C204.408371,143.449921 204.196014,143.527863 203.983673,143.605820 
	C204.108704,144.320526 204.233749,145.035233 204.170364,146.412491 
	C203.771271,146.945374 203.372177,147.478256 202.663895,147.644562 
	C202.546661,147.347229 202.442139,147.045502 202.548538,146.424728 
	C202.548538,146.424728 202.549469,146.051376 203.026993,145.548355 
	C202.397461,144.012955 201.767929,142.477570 200.667236,139.793015 
	C199.635315,142.051804 199.191040,143.024307 198.185837,143.992294 
	C197.741150,144.114777 197.296448,144.237259 196.851761,144.359741 
	C197.491638,144.555603 198.131516,144.751465 198.875519,145.616394 
M148.961609,107.953224 
	C146.644226,102.806366 146.624664,97.609871 148.069946,92.177841 
	C148.508759,90.528610 147.511780,88.497368 146.926743,85.297226 
	C146.287262,89.416992 145.945526,91.978844 145.483826,94.518875 
	C144.488876,99.992409 144.135315,105.335052 148.333054,110.524811 
	C153.296753,115.093468 153.437042,109.328545 155.080643,107.021957 
	C156.708817,108.838074 158.116669,110.408447 159.524521,111.978813 
	C159.714752,111.831154 159.904968,111.683502 160.095184,111.535843 
	C158.347702,107.528549 156.600204,103.521248 154.185989,97.985077 
	C152.900787,101.723206 152.191971,104.130867 151.222641,106.428596 
	C150.851501,107.308350 149.884903,107.936897 148.961609,107.953224 
M25.061333,131.978989 
	C25.146542,130.823105 25.231750,129.667221 25.414574,127.187164 
	C28.250605,133.461136 30.441647,138.452866 32.759281,143.385101 
	C34.333160,146.734512 35.008907,150.929413 40.135586,151.019608 
	C45.312801,151.110687 46.042530,146.960434 47.620834,143.583923 
	C49.934204,138.634857 52.199684,133.663422 54.485569,128.701508 
	C54.875622,128.800690 55.265678,128.899872 55.655731,128.999054 
	C55.655731,136.041412 55.655731,143.083755 55.655731,150.265839 
	C57.774536,150.265839 59.340874,150.265839 61.460056,150.265839 
	C61.460056,142.035614 61.636482,134.081924 61.295898,126.150414 
	C61.235260,124.738235 59.274223,122.724319 57.765282,122.190300 
	C53.795620,120.785408 50.700527,122.129257 48.928020,126.283737 
	C46.238941,132.586533 43.336929,138.798492 40.239880,145.683746 
	C39.497814,144.366211 39.141972,143.844406 38.893211,143.275772 
	C36.294598,137.335648 34.067802,131.190674 30.930304,125.551865 
	C29.864317,123.636032 26.575222,122.223633 24.186230,122.033188 
	C22.570688,121.904396 19.335806,124.232613 19.257902,125.600418 
	C18.789698,133.820923 19.025475,142.081512 19.025475,150.681091 
	C21.431129,150.567032 23.159363,150.485107 25.068336,150.394608 
	C25.068336,144.187363 25.068336,138.531845 25.061333,131.978989 
M155.640549,122.539490 
	C151.814499,122.445648 147.988449,122.273918 144.162384,122.272903 
	C133.627991,122.270126 131.901123,123.986046 131.900543,134.241318 
	C131.899612,150.469772 132.869278,151.312393 149.619858,150.781158 
	C151.386536,150.725143 153.211258,151.835098 154.974686,152.495880 
	C157.687134,153.512268 160.369781,154.608170 163.065079,155.670334 
	C163.305389,155.213867 163.545700,154.757416 163.785995,154.300949 
	C162.374496,152.781708 160.962982,151.262466 160.303024,150.552139 
	C161.173920,147.043228 162.179794,144.326950 162.456009,141.538376 
	C162.799210,138.073334 162.392624,134.540848 162.576065,131.051483 
	C162.815384,126.499268 160.877213,123.750465 155.640549,122.539490 
M105.846466,146.464752 
	C104.682465,146.475998 103.393684,146.183655 102.393944,146.594559 
	C101.594109,146.923294 100.841629,148.047531 100.667664,148.936096 
	C100.578667,149.390686 101.806076,150.620255 102.436188,150.618576 
	C108.911507,150.601456 115.424500,150.780716 121.848610,150.130692 
	C126.534752,149.656525 128.254532,146.252991 128.052322,141.494492 
	C127.857811,136.917496 124.970833,135.445679 121.353218,134.869507 
	C118.422691,134.402771 115.387520,134.576660 112.397873,134.502289 
	C109.631630,134.433456 106.967270,134.436005 106.844170,130.515930 
	C106.718033,126.499092 109.330025,126.465759 112.152740,126.480446 
	C116.642967,126.503822 121.138733,126.596130 125.619392,126.386559 
	C126.533356,126.343811 127.390968,125.096169 128.274551,124.403946 
	C127.432640,123.667824 126.607964,122.318779 125.746033,122.294533 
	C119.930984,122.131004 114.094788,122.014023 108.291519,122.342636 
	C102.876411,122.649261 100.645531,125.200798 100.583313,130.169418 
	C100.523186,134.971466 102.787315,137.416855 108.280678,138.003799 
	C111.411171,138.338303 114.684631,137.808578 117.705467,138.495651 
	C119.215164,138.839050 120.938377,140.841064 121.438560,142.444305 
	C122.284615,145.156219 120.259628,146.321762 117.744980,146.382614 
	C114.088570,146.471085 110.429359,146.443436 105.846466,146.464752 
M72.011673,149.778992 
	C77.898781,150.104874 83.785881,150.430740 89.672981,150.756622 
	C89.876801,151.340256 90.080612,151.923889 90.284424,152.507538 
	C88.602692,153.369934 86.961899,154.863831 85.231537,154.976013 
	C80.093277,155.309128 74.911873,154.947647 69.766090,155.216492 
	C68.624260,155.276138 67.559410,156.809235 66.459114,157.663879 
	C66.738365,158.118042 67.017624,158.572189 67.296875,159.026352 
	C74.257416,159.026352 81.270943,159.520157 88.152252,158.781784 
	C90.880524,158.489029 95.282791,155.697235 95.530540,153.635574 
	C96.427246,146.173340 95.883659,138.538010 95.883659,130.755981 
	C93.492241,130.887558 91.757469,130.983002 89.689377,131.096802 
	C89.689377,136.505707 89.689377,141.437195 89.689377,146.818024 
	C85.048820,146.818024 80.761559,146.859055 76.475571,146.802994 
	C73.801399,146.768005 72.710678,145.366714 72.825005,142.649155 
	C72.984070,138.868210 72.865036,135.075577 72.865036,131.134247 
	C70.624611,131.134247 68.880188,131.134247 66.692848,131.134247 
	C66.692848,135.000183 66.887047,138.642212 66.638916,142.253845 
	C66.384476,145.957275 67.745026,148.346985 72.011673,149.778992 
M143.049774,63.616791 
	C140.852097,63.665089 138.521103,63.309872 136.525269,63.969193 
	C135.774124,64.217323 135.052628,67.194664 135.600647,68.279922 
	C137.994751,73.021049 140.860123,77.524200 143.883224,82.673813 
	C145.222443,75.454674 138.731171,71.679810 137.865112,65.502129 
	C140.632629,65.960930 142.936172,66.939247 145.217484,67.966904 
	C146.562912,68.572975 147.828812,69.698441 149.206116,69.836693 
	C160.387711,70.959030 167.539383,77.920448 173.110703,86.700920 
	C176.106125,91.421722 178.364594,96.693375 180.355286,101.944069 
	C182.191559,106.787468 186.185944,107.937828 190.343796,109.101578 
	C191.300049,109.369217 192.429825,109.016853 193.819885,108.928101 
	C192.988052,108.370255 192.051773,107.332283 190.928818,107.057701 
	C184.885681,105.580009 182.996857,100.549950 180.870529,95.684158 
	C180.006409,93.706749 179.252045,91.675911 178.292740,89.746460 
	C173.291916,79.688347 165.793030,72.250374 155.238174,68.117058 
	C151.438049,66.628922 147.578247,65.293167 143.049774,63.616791 
M168.578918,122.205627 
	C167.789246,123.337814 166.371674,124.440903 166.317596,125.607185 
	C166.071823,130.909821 166.183273,136.230423 166.217194,141.544235 
	C166.254684,147.418777 168.052368,149.727219 174.024750,150.278503 
	C179.462448,150.780441 184.965912,150.705658 190.435364,150.606888 
	C191.459045,150.588394 192.458984,149.255737 193.469879,148.529541 
	C192.426270,147.843781 191.412720,146.627472 190.333710,146.566315 
	C186.195297,146.331787 182.034943,146.412384 177.884567,146.482056 
	C174.018280,146.546951 172.090897,145.125412 172.332291,140.880280 
	C172.624100,135.748947 172.332596,130.586990 172.431396,125.440926 
	C172.473816,123.231918 171.975861,121.844826 168.578918,122.205627 
M201.207886,126.777275 
	C198.412094,124.323013 195.616318,121.868744 192.372620,119.021286 
	C195.844894,118.186348 198.817123,117.471649 202.273544,116.640526 
	C201.154922,115.252586 200.364609,114.271996 199.952072,113.760139 
	C195.631134,115.045120 191.759201,116.196579 187.290024,117.525650 
	C191.146362,122.942909 195.096283,126.644569 201.207886,126.777275 
M203.638489,128.924850 
	C203.551987,128.958740 203.465485,128.992615 203.378983,129.026489 
	C203.439377,128.922287 203.499756,128.818085 203.638489,128.924850 
M161.920151,114.345505 
	C162.034027,114.393959 162.147919,114.442413 162.261795,114.490868 
	C162.183807,114.534294 162.095566,114.624947 162.030090,114.610733 
	C161.914459,114.585640 161.812683,114.496666 161.920151,114.345505 
z"/>
<path fill="#0D678E" opacity="1.000000" stroke="none" 
	d="
M25.064835,132.427673 
	C25.068336,138.531845 25.068336,144.187363 25.068336,150.394608 
	C23.159363,150.485107 21.431129,150.567032 19.025475,150.681091 
	C19.025475,142.081512 18.789698,133.820923 19.257902,125.600418 
	C19.335806,124.232613 22.570688,121.904396 24.186230,122.033188 
	C26.575222,122.223633 29.864317,123.636032 30.930304,125.551865 
	C34.067802,131.190674 36.294598,137.335648 38.893211,143.275772 
	C39.141972,143.844406 39.497814,144.366211 40.239880,145.683746 
	C43.336929,138.798492 46.238941,132.586533 48.928020,126.283737 
	C50.700527,122.129257 53.795620,120.785408 57.765282,122.190300 
	C59.274223,122.724319 61.235260,124.738235 61.295898,126.150414 
	C61.636482,134.081924 61.460056,142.035614 61.460056,150.265839 
	C59.340874,150.265839 57.774536,150.265839 55.655731,150.265839 
	C55.655731,143.083755 55.655731,136.041412 55.655731,128.999054 
	C55.265678,128.899872 54.875622,128.800690 54.485569,128.701508 
	C52.199684,133.663422 49.934204,138.634857 47.620834,143.583923 
	C46.042530,146.960434 45.312801,151.110687 40.135586,151.019608 
	C35.008907,150.929413 34.333160,146.734512 32.759281,143.385101 
	C30.441647,138.452866 28.250605,133.461136 25.414574,127.187164 
	C25.231750,129.667221 25.146542,130.823105 25.064835,132.427673 
z"/>
<path fill="#E59410" opacity="1.000000" stroke="none" 
	d="
M156.042389,122.641907 
	C160.877213,123.750465 162.815384,126.499268 162.576065,131.051483 
	C162.392624,134.540848 162.799210,138.073334 162.456009,141.538376 
	C162.179794,144.326950 161.173920,147.043228 160.303024,150.552139 
	C160.962982,151.262466 162.374496,152.781708 163.785995,154.300949 
	C163.545700,154.757416 163.305389,155.213867 163.065079,155.670334 
	C160.369781,154.608170 157.687134,153.512268 154.974686,152.495880 
	C153.211258,151.835098 151.386536,150.725143 149.619858,150.781158 
	C132.869278,151.312393 131.899612,150.469772 131.900543,134.241318 
	C131.901123,123.986046 133.627991,122.270126 144.162384,122.272903 
	C147.988449,122.273918 151.814499,122.445648 156.042389,122.641907 
M139.640213,127.392784 
	C139.292175,131.124817 138.712387,134.852585 138.643600,138.589752 
	C138.493546,146.740768 139.047241,147.141098 147.709137,146.418152 
	C146.612274,145.007492 145.608719,143.716858 144.605179,142.426224 
	C144.834229,142.030090 145.063278,141.633957 145.292328,141.237808 
	C148.794952,142.589142 152.297577,143.940460 156.667999,145.626587 
	C156.667999,140.096237 156.848877,134.552475 156.493561,129.043259 
	C156.432892,128.102631 154.109192,126.634270 152.778748,126.574646 
	C148.668732,126.390457 144.533508,126.769470 139.640213,127.392784 
z"/>
<path fill="#E69517" opacity="1.000000" stroke="none" 
	d="
M106.308899,146.465027 
	C110.429359,146.443436 114.088570,146.471085 117.744980,146.382614 
	C120.259628,146.321762 122.284615,145.156219 121.438560,142.444305 
	C120.938377,140.841064 119.215164,138.839050 117.705467,138.495651 
	C114.684631,137.808578 111.411171,138.338303 108.280678,138.003799 
	C102.787315,137.416855 100.523186,134.971466 100.583313,130.169418 
	C100.645531,125.200798 102.876411,122.649261 108.291519,122.342636 
	C114.094788,122.014023 119.930984,122.131004 125.746033,122.294533 
	C126.607964,122.318779 127.432640,123.667824 128.274551,124.403946 
	C127.390968,125.096169 126.533356,126.343811 125.619392,126.386559 
	C121.138733,126.596130 116.642967,126.503822 112.152740,126.480446 
	C109.330025,126.465759 106.718033,126.499092 106.844170,130.515930 
	C106.967270,134.436005 109.631630,134.433456 112.397873,134.502289 
	C115.387520,134.576660 118.422691,134.402771 121.353218,134.869507 
	C124.970833,135.445679 127.857811,136.917496 128.052322,141.494492 
	C128.254532,146.252991 126.534752,149.656525 121.848610,150.130692 
	C115.424500,150.780716 108.911507,150.601456 102.436188,150.618576 
	C101.806076,150.620255 100.578667,149.390686 100.667664,148.936096 
	C100.841629,148.047531 101.594109,146.923294 102.393944,146.594559 
	C103.393684,146.183655 104.682465,146.475998 106.308899,146.465027 
z"/>
<path fill="#09648C" opacity="1.000000" stroke="none" 
	d="
M71.630508,149.651611 
	C67.745026,148.346985 66.384476,145.957275 66.638916,142.253845 
	C66.887047,138.642212 66.692848,135.000183 66.692848,131.134247 
	C68.880188,131.134247 70.624611,131.134247 72.865036,131.134247 
	C72.865036,135.075577 72.984070,138.868210 72.825005,142.649155 
	C72.710678,145.366714 73.801399,146.768005 76.475571,146.802994 
	C80.761559,146.859055 85.048820,146.818024 89.689377,146.818024 
	C89.689377,141.437195 89.689377,136.505707 89.689377,131.096802 
	C91.757469,130.983002 93.492241,130.887558 95.883659,130.755981 
	C95.883659,138.538010 96.427246,146.173340 95.530540,153.635574 
	C95.282791,155.697235 90.880524,158.489029 88.152252,158.781784 
	C81.270943,159.520157 74.257416,159.026352 67.296875,159.026352 
	C67.017624,158.572189 66.738365,158.118042 66.459114,157.663879 
	C67.559410,156.809235 68.624260,155.276138 69.766090,155.216492 
	C74.911873,154.947647 80.093277,155.309128 85.231537,154.976013 
	C86.961899,154.863831 88.602692,153.369934 90.284424,152.507538 
	C90.080612,151.923889 89.876801,151.340256 89.672981,150.756622 
	C83.785881,150.430740 77.898781,150.104874 71.630508,149.651611 
z"/>
<path fill="#1E6E93" opacity="1.000000" stroke="none" 
	d="
M143.397736,63.752331 
	C147.578247,65.293167 151.438049,66.628922 155.238174,68.117058 
	C165.793030,72.250374 173.291916,79.688347 178.292740,89.746460 
	C179.252045,91.675911 180.006409,93.706749 180.870529,95.684158 
	C182.996857,100.549950 184.885681,105.580009 190.928818,107.057701 
	C192.051773,107.332283 192.988052,108.370255 193.819885,108.928101 
	C192.429825,109.016853 191.300049,109.369217 190.343796,109.101578 
	C186.185944,107.937828 182.191559,106.787468 180.355286,101.944069 
	C178.364594,96.693375 176.106125,91.421722 173.110703,86.700920 
	C167.539383,77.920448 160.387711,70.959030 149.206116,69.836693 
	C147.828812,69.698441 146.562912,68.572975 145.217484,67.966904 
	C142.936172,66.939247 140.632629,65.960930 137.865112,65.502129 
	C138.731171,71.679810 145.222443,75.454674 143.883224,82.673813 
	C140.860123,77.524200 137.994751,73.021049 135.600647,68.279922 
	C135.052628,67.194664 135.774124,64.217323 136.525269,63.969193 
	C138.521103,63.309872 140.852097,63.665089 143.397736,63.752331 
z"/>
<path fill="#E69516" opacity="1.000000" stroke="none" 
	d="
M169.000427,122.201797 
	C171.975861,121.844826 172.473816,123.231918 172.431396,125.440926 
	C172.332596,130.586990 172.624100,135.748947 172.332291,140.880280 
	C172.090897,145.125412 174.018280,146.546951 177.884567,146.482056 
	C182.034943,146.412384 186.195297,146.331787 190.333710,146.566315 
	C191.412720,146.627472 192.426270,147.843781 193.469879,148.529541 
	C192.458984,149.255737 191.459045,150.588394 190.435364,150.606888 
	C184.965912,150.705658 179.462448,150.780441 174.024750,150.278503 
	C168.052368,149.727219 166.254684,147.418777 166.217194,141.544235 
	C166.183273,136.230423 166.071823,130.909821 166.317596,125.607185 
	C166.371674,124.440903 167.789246,123.337814 169.000427,122.201797 
z"/>
<path fill="#287599" opacity="1.000000" stroke="none" 
	d="
M201.181244,127.103195 
	C195.096283,126.644569 191.146362,122.942909 187.290024,117.525650 
	C191.759201,116.196579 195.631134,115.045120 199.952072,113.760139 
	C200.364609,114.271996 201.154922,115.252586 202.273544,116.640526 
	C198.817123,117.471649 195.844894,118.186348 192.372620,119.021286 
	C195.616318,121.868744 198.412094,124.323013 201.181244,127.103195 
z"/>
<path fill="#267396" opacity="1.000000" stroke="none" 
	d="
M149.189651,108.679909 
	C149.884903,107.936897 150.851501,107.308350 151.222641,106.428596 
	C152.191971,104.130867 152.900787,101.723206 154.185989,97.985077 
	C156.600204,103.521248 158.347702,107.528549 160.095184,111.535843 
	C159.904968,111.683502 159.714752,111.831154 159.524521,111.978813 
	C158.116669,110.408447 156.708817,108.838074 155.080643,107.021957 
	C153.437042,109.328545 153.296753,115.093468 148.465363,110.082642 
	C148.794983,109.320290 148.992325,109.000099 149.189651,108.679909 
z"/>
<path fill="#0E668C" opacity="1.000000" stroke="none" 
	d="
M149.075623,108.316566 
	C148.992325,109.000099 148.794983,109.320290 148.359451,109.794159 
	C144.135315,105.335052 144.488876,99.992409 145.483826,94.518875 
	C145.945526,91.978844 146.287262,89.416992 146.926743,85.297226 
	C147.511780,88.497368 148.508759,90.528610 148.069946,92.177841 
	C146.624664,97.609871 146.644226,102.806366 149.075623,108.316566 
z"/>
<path fill="#F4D29F" opacity="1.000000" stroke="none" 
	d="
M198.746750,143.996811 
	C199.191040,143.024307 199.635315,142.051804 200.667236,139.793015 
	C201.767929,142.477570 202.397461,144.012955 202.424194,145.745880 
	C201.211151,145.631317 200.600891,145.319229 199.924286,144.786179 
	C199.681747,144.296402 199.439728,144.115845 199.035156,144.023087 
	C198.938431,144.022659 198.746750,143.996811 198.746750,143.996811 
z"/>
<path fill="#FAEAD4" opacity="1.000000" stroke="none" 
	d="
M205.633865,145.750717 
	C205.122955,147.146072 204.612045,148.541428 203.602386,149.680481 
	C203.060135,148.953186 203.016617,148.482162 202.973099,148.011154 
	C203.372177,147.478256 203.771271,146.945374 204.474731,146.111404 
	C205.066666,145.828674 205.351593,145.808807 205.633865,145.750717 
z"/>
<path fill="#ECB153" opacity="1.000000" stroke="none" 
	d="
M202.818497,147.827850 
	C203.016617,148.482162 203.060135,148.953186 203.256836,149.745392 
	C202.033386,150.312958 200.656754,150.559326 199.098663,150.451950 
	C198.917221,150.098221 199.131668,149.874725 199.492188,149.895721 
	C200.518906,149.009262 201.185104,148.101807 201.970947,147.075012 
	C202.090576,146.955658 202.350311,146.739380 202.350311,146.739380 
	C202.442139,147.045502 202.546661,147.347229 202.818497,147.827850 
z"/>
<path fill="#FCF2E2" opacity="1.000000" stroke="none" 
	d="
M197.343719,149.094528 
	C197.610901,148.396805 197.878082,147.699081 198.546738,147.257843 
	C198.952026,147.703156 198.955841,147.892014 198.949402,148.192062 
	C198.939163,148.303238 198.993805,148.520752 198.729492,148.647491 
	C198.091370,148.880997 197.717545,148.987762 197.343719,149.094528 
z"/>
<path fill="#F4D29F" opacity="1.000000" stroke="none" 
	d="
M205.679886,145.463562 
	C205.351593,145.808807 205.066666,145.828674 204.568939,145.780121 
	C204.233749,145.035233 204.108704,144.320526 203.983673,143.605820 
	C204.196014,143.527863 204.408371,143.449921 204.620728,143.371964 
	C204.989120,143.973434 205.357513,144.574921 205.679886,145.463562 
z"/>
<path fill="#ECB153" opacity="1.000000" stroke="none" 
	d="
M198.959656,148.080887 
	C198.955841,147.892014 198.952026,147.703156 198.876465,147.240143 
	C198.828323,146.516129 198.851913,146.066254 198.901306,145.323700 
	C198.927109,145.031021 199.102737,145.051239 199.324280,145.031403 
	C199.545822,145.011551 199.990631,145.007156 199.990631,145.007156 
	C200.600891,145.319229 201.211151,145.631317 202.185425,145.997391 
	C202.549469,146.051376 202.548538,146.424728 202.449432,146.582062 
	C202.350311,146.739380 202.090576,146.955658 201.680740,147.149582 
	C200.500488,147.589294 199.730072,147.835098 198.959656,148.080887 
z"/>
<path fill="#FCF2E2" opacity="1.000000" stroke="none" 
	d="
M198.849243,144.989166 
	C198.131516,144.751465 197.491638,144.555603 196.851761,144.359741 
	C197.296448,144.237259 197.741150,144.114777 198.466293,143.994553 
	C198.746750,143.996811 198.938431,144.022659 198.987244,144.278839 
	C199.058289,144.707108 199.080505,144.879181 199.102737,145.051239 
	C199.102737,145.051239 198.927109,145.031021 198.849243,144.989166 
z"/>
<path fill="#ECB153" opacity="1.000000" stroke="none" 
	d="
M197.397797,149.336838 
	C197.717545,148.987762 198.091370,148.880997 198.788834,148.984283 
	C199.118866,149.421158 199.125275,149.647949 199.131668,149.874725 
	C199.131668,149.874725 198.917221,150.098221 198.812622,150.213898 
	C198.289307,150.079422 197.870590,149.829285 197.397797,149.336838 
z"/>
<path fill="#287599" opacity="1.000000" stroke="none" 
	d="
M203.599304,128.819366 
	C203.499756,128.818085 203.439377,128.922287 203.378983,129.026489 
	C203.465485,128.992615 203.551987,128.958740 203.599304,128.819366 
z"/>
<path fill="#267396" opacity="1.000000" stroke="none" 
	d="
M161.812622,114.389969 
	C161.812683,114.496666 161.914459,114.585640 162.030090,114.610733 
	C162.095566,114.624947 162.183807,114.534294 162.261795,114.490868 
	C162.147919,114.442413 162.034027,114.393959 161.812622,114.389969 
z"/>
<path fill="#FEF9F2" opacity="1.000000" stroke="none" 
	d="
M140.024139,127.161270 
	C144.533508,126.769470 148.668732,126.390457 152.778748,126.574646 
	C154.109192,126.634270 156.432892,128.102631 156.493561,129.043259 
	C156.848877,134.552475 156.667999,140.096237 156.667999,145.626587 
	C152.297577,143.940460 148.794952,142.589142 145.292328,141.237808 
	C145.063278,141.633957 144.834229,142.030090 144.605179,142.426224 
	C145.608719,143.716858 146.612274,145.007492 147.709137,146.418152 
	C139.047241,147.141098 138.493546,146.740768 138.643600,138.589752 
	C138.712387,134.852585 139.292175,131.124817 140.024139,127.161270 
z"/>
<path fill="#EFBF6E" opacity="1.000000" stroke="none" 
	d="
M199.324280,145.031403 
	C199.080505,144.879181 199.058289,144.707108 199.083954,144.279266 
	C199.439728,144.115845 199.681747,144.296402 199.924286,144.786179 
	C199.990631,145.007156 199.545822,145.011551 199.324280,145.031403 
z"/>
<path fill="#F8E0C0" opacity="1.000000" stroke="none" 
	d="
M199.492188,149.895721 
	C199.125275,149.647949 199.118866,149.421158 199.053131,148.857544 
	C198.993805,148.520752 198.939163,148.303238 198.949402,148.192062 
	C199.730072,147.835098 200.500488,147.589294 201.561096,147.268921 
	C201.185104,148.101807 200.518906,149.009262 199.492188,149.895721 
z"/>
</svg>