<?xml version="1.0" standalone="no"?>
<!DOCTYPE svg PUBLIC "-//W3C//DTD SVG 20010904//EN"
 "http://www.w3.org/TR/2001/REC-SVG-20010904/DTD/svg10.dtd">
<svg version="1.0" xmlns="http://www.w3.org/2000/svg"
 width="225.000000pt" height="225.000000pt" viewBox="0 0 225.000000 225.000000"
 preserveAspectRatio="xMidYMid meet">
<metadata>
Created by potrace 1.10, written by Peter Selinger 2001-2011
</metadata>
<g transform="translate(0.000000,225.000000) scale(0.100000,-0.100000)"
fill="#000000" stroke="none">
<path d="M270 1954 c0 -14 412 -1699 426 -1742 2 -8 10 -12 18 -10 8 2 221
201 472 443 251 242 541 520 643 618 102 98 186 186 186 195 0 13 -92 43 -460
149 -253 73 -640 184 -860 248 -220 63 -406 115 -413 115 -6 0 -12 -7 -12 -16z
m395 -139 c0 -5 -59 -67 -131 -137 l-131 -128 -43 178 c-23 97 -45 182 -47
188 -2 6 76 -12 174 -40 98 -28 178 -56 178 -61z m277 -70 l166 -47 -130 -127
c-72 -69 -133 -127 -137 -129 -4 -1 -27 79 -52 178 -36 145 -42 180 -29 177 8
-2 90 -25 182 -52z m-192 -121 c22 -88 42 -168 45 -180 6 -20 -4 -18 -172 30
-98 28 -180 52 -183 54 -3 2 56 61 130 132 74 70 136 127 138 125 2 -2 21 -74
42 -161z m613 0 c92 -26 166 -50 165 -53 -2 -3 -62 -64 -135 -135 -131 -127
-132 -128 -139 -100 -13 57 -75 309 -80 328 -4 13 -2 17 7 13 8 -2 89 -26 182
-53z m-138 -320 c0 -1 -82 22 -183 51 l-183 52 138 130 138 131 45 -182 c25
-99 45 -182 45 -182z m686 161 l56 -16 -121 -116 c-66 -64 -129 -124 -138
-135 -16 -17 -17 -17 -22 -1 -7 25 -86 350 -86 356 0 2 57 -13 128 -34 70 -21
152 -45 183 -54z m-303 -102 c23 -97 41 -177 39 -179 -1 -1 -83 20 -181 49
l-179 51 134 128 c74 70 136 127 139 128 3 0 24 -80 48 -177z m-877 42 l56
-16 -136 -134 c-83 -82 -138 -129 -142 -122 -6 11 -89 346 -89 359 0 2 57 -12
128 -33 70 -21 152 -45 183 -54z m300 -85 c95 -28 174 -52 176 -53 2 -2 -56
-61 -128 -131 -71 -71 -133 -126 -136 -123 -3 4 -91 337 -93 355 0 4 10 2 181
-48z m-170 -145 c26 -102 44 -185 40 -185 -3 0 -67 18 -141 39 -74 22 -155 45
-180 51 l-45 12 135 133 c74 73 137 133 140 134 3 0 26 -82 51 -184z m779 -33
c5 -4 -261 -261 -270 -262 -4 0 -91 345 -90 361 0 6 349 -90 360 -99z m-354
-85 c24 -94 43 -177 44 -183 0 -6 -52 5 -127 27 -71 21 -153 45 -184 54 l-57
16 127 121 c69 67 130 128 134 136 5 7 11 11 15 8 3 -3 25 -84 48 -179z m-558
-57 l163 -46 -137 -132 c-76 -72 -138 -130 -139 -129 0 1 -21 84 -46 184 -42
172 -43 183 -24 176 11 -3 93 -27 183 -53z m202 -88 c0 -10 18 -92 40 -181 22
-89 40 -163 40 -165 0 -3 -350 94 -357 99 -5 3 262 265 270 265 4 0 7 -8 7
-18z m204 -28 c88 -25 168 -48 176 -50 9 -3 -32 -49 -120 -132 -73 -70 -136
-126 -138 -125 -4 2 -88 323 -92 351 0 5 18 0 174 -44z m-298 -309 l171 -48
-135 -131 c-74 -72 -138 -132 -142 -134 -4 -2 -27 75 -50 170 -24 95 -45 179
-48 187 -4 10 0 13 14 9 10 -3 96 -27 190 -53z"/>
</g>
</svg>
